<svg width="500" height="500" viewBox="0 0 500 500" fill="none" xmlns="http://www.w3.org/2000/svg">
<g clip-path="url(#clip0_1_2)">
<path d="M198.086 317.484C131.823 306.637 87.4228 251.118 73.5057 224.715C60.0376 221.29 51.2833 215.2 48.5897 212.584C50.6099 214.962 53.0342 218.007 46.5695 211.157C40.1048 204.306 43.8759 197.36 46.5695 194.744C50.8793 184.468 66.3227 171.433 73.5057 166.2C124.146 29.1876 220.308 13.0126 262.059 22.0516C328.94 28.0514 376.044 64.7584 404.821 100.299C420.085 104.188 451.69 114.82 456 126.238C455.102 131.471 449.67 143.65 435.124 150.5C462.061 248.692 412.229 323.668 383.946 348.882C375.865 354.02 380.579 366.722 383.946 372.431C417.885 431.232 407.066 482.088 397.414 500.166C368.323 495.599 333.665 449.262 319.972 426.665C249.399 446.075 209.309 421.432 198.086 406.684C211.015 367.293 276.65 357.921 307.851 358.159C321.319 355.875 326.033 346.741 326.706 342.46C324.551 332.184 302.015 319.624 291.016 314.629C262.463 325.476 217.166 321.052 198.086 317.484Z" fill="#0EA5E9"/>
<path d="M365.112 358.408C362.719 298.992 289.965 251.102 253.887 234.583C249.767 234.999 245.872 234.375 242.387 233.211C232.756 284.907 245.574 312.859 253.187 320.373C286.82 360.245 341.818 362.343 365.112 358.408Z" fill="#0EA5E9"/>
<path fill-rule="evenodd" clip-rule="evenodd" d="M232.833 224.628C233.787 224.043 234.688 223.439 235.498 222.826C236.368 222.166 237.19 221.453 237.866 220.694C238.523 219.957 239.173 219.032 239.5 217.94L234.025 216.299C234.025 216.299 234.025 216.298 234.024 216.301C234.013 216.325 233.926 216.523 233.598 216.892C233.249 217.283 232.736 217.747 232.046 218.269C230.666 219.315 228.811 220.422 226.75 221.497C223.314 223.29 219.538 224.877 216.987 225.829C159.533 246.164 96.59 232.931 73.7249 225.071L75.154 227.929L78.0121 232.216C102.546 241.357 159.778 252.151 218.918 231.21L218.94 231.202L218.962 231.194C221.22 230.352 224.368 229.049 227.489 227.526C230.089 229.993 234.143 232.979 239.149 235.051C234.753 260.075 235.577 279.587 238.521 293.935C241.517 308.535 246.751 317.973 251.084 322.312C268.386 342.772 291.11 353.488 312.359 358.597C333.616 363.708 353.579 363.255 365.588 361.227L368.069 360.807L367.968 358.293C366.726 327.465 347.283 299.974 324.082 278.32C300.82 256.609 273.341 240.347 255.077 231.985L254.372 231.662L253.6 231.74C249.95 232.108 246.464 231.559 243.292 230.5C238.981 229.062 235.345 226.712 232.833 224.628ZM244.646 236.809C240.509 260.843 241.368 279.371 244.121 292.786C247.007 306.856 251.934 315.12 255.195 318.338L255.288 318.43L255.372 318.53C271.693 337.879 293.246 348.123 313.695 353.039C332.711 357.611 350.614 357.535 362.109 355.974C360.02 328.38 342.296 303.139 320.181 282.499C297.736 261.549 271.193 245.743 253.379 237.496C250.31 237.719 247.377 237.429 244.646 236.809Z" fill="white"/>
</g>
<defs>
<clipPath id="clip0_1_2">
<rect width="500" height="500" fill="white"/>
</clipPath>
</defs>
</svg>
